<svg xmlns="http://www.w3.org/2000/svg" viewBox="0 0 1200 630" role="img" aria-label="Rvin Labrada portfolio preview">
  <rect width="1200" height="630" fill="#ffffff"/>
  <defs>
    <pattern id="dots" width="14" height="14" patternUnits="userSpaceOnUse">
      <circle cx="2" cy="2" r="1.4" fill="#0a0a0a" opacity="0.22"/>
    </pattern>
  </defs>
  <rect x="610" y="80" width="420" height="420" fill="url(#dots)"/>
  <rect x="80" y="80" width="1040" height="470" rx="20" fill="none" stroke="#d7d7d7"/>
  <text x="120" y="150" fill="#666666" font-family="ui-monospace, SFMono-Regular, Menlo, Consolas, monospace" font-size="22" font-weight="700" letter-spacing="4">PORTFOLIO</text>
  <text x="120" y="265" fill="#0a0a0a" font-family="ui-monospace, SFMono-Regular, Menlo, Consolas, monospace" font-size="86" font-weight="800">Rvin</text>
  <text x="120" y="355" fill="#0a0a0a" font-family="ui-monospace, SFMono-Regular, Menlo, Consolas, monospace" font-size="86" font-weight="800">Labrada</text>
  <text x="120" y="430" fill="#2b2b2b" font-family="Inter, Arial, sans-serif" font-size="30">Full-stack web systems, student tools, and interface experiments.</text>
  <g transform="translate(820 165)">
    <rect x="0" y="0" width="190" height="250" rx="18" fill="#f5f5f5" stroke="#cfcfcf"/>
    <rect x="22" y="28" width="146" height="110" rx="10" fill="#ffffff" stroke="#cfcfcf"/>
    <circle cx="95" cy="76" r="34" fill="#0a0a0a"/>
    <path d="M58 71c12-14 26-14 37 0 12-14 25-14 37 0-8 26-21 40-37 40S66 97 58 71Z" fill="#ffffff"/>
    <text x="44" y="176" fill="#0a0a0a" font-family="ui-monospace, SFMono-Regular, Menlo, Consolas, monospace" font-size="24" font-weight="800">Rvin</text>
    <text x="27" y="205" fill="#0a0a0a" font-family="ui-monospace, SFMono-Regular, Menlo, Consolas, monospace" font-size="24" font-weight="800">Labrada</text>
  </g>
</svg>
